<?xml version="1.0" encoding="UTF-8" standalone="no"?>
<svg
   width="132.77245"
   height="110.09591"
   enable-background="new 0 0 512 512"
   viewBox="0 0 132.77245 110.09591"
   id="bird"
   version="1.1"
   sodipodi:docname="bird.svg"
   inkscape:version="1.3.2 (091e20ef0f, 2023-11-25)"
   inkscape:export-filename="../Pictures/birdie-os/birdie-os-small.png"
   inkscape:export-xdpi="26.520193"
   inkscape:export-ydpi="26.520193"
   xmlns:inkscape="http://www.inkscape.org/namespaces/inkscape"
   xmlns:sodipodi="http://sodipodi.sourceforge.net/DTD/sodipodi-0.dtd"
   xmlns="http://www.w3.org/2000/svg"
   xmlns:svg="http://www.w3.org/2000/svg">
  <defs
     id="defs1" />
  <sodipodi:namedview
     id="namedview1"
     pagecolor="#ffffff"
     bordercolor="#000000"
     borderopacity="0.25"
     inkscape:showpageshadow="2"
     inkscape:pageopacity="0.0"
     inkscape:pagecheckerboard="0"
     inkscape:deskcolor="#d1d1d1"
     inkscape:zoom="2"
     inkscape:cx="281"
     inkscape:cy="102.5"
     inkscape:window-width="2560"
     inkscape:window-height="1440"
     inkscape:window-x="0"
     inkscape:window-y="0"
     inkscape:window-maximized="1"
     inkscape:current-layer="bird" />
  <g
     inkscape:groupmode="layer"
     id="layer1"
     inkscape:label="Layer 1"
     transform="translate(-33.728096,-24.422243)">
    <path
       style="opacity:1;fill:#e9c46a;fill-opacity:1;stroke-width:0.210321"
       d="m 159.677,39.682929 c -0.83198,0.327472 -0.34552,1.608495 -0.53544,2.299885 0.0701,1.7958 -0.30416,3.723417 0.22004,5.445762 0.93929,0.126154 1.8066,-0.86867 2.69193,-1.167334 1.48595,-0.886828 3.12275,-1.631497 4.447,-2.723503 -1.14855,-1.066502 -2.81707,-1.674434 -4.16002,-2.567739 -0.8732,-0.413569 -1.69346,-1.140931 -2.66351,-1.287071 z"
       id="path11" />
    <path
       style="opacity:1;fill:#e9c46a;fill-opacity:1;stroke-width:0.177482"
       d="M 97.429292,59.802333 C 76.197611,84.592829 54.934003,109.35652 33.728096,134.16874 c 0.211415,0.76673 1.748723,0.01 2.460004,0.16057 16.630554,-1.10218 33.060315,-5.48061 47.902038,-13.09161 13.349123,-6.70999 25.287902,-16.10671 35.133472,-27.328023 9.73746,-11.12765 19.3313,-22.380468 28.96062,-33.601694 0.0311,-0.664786 -1.15297,-0.358723 -1.62782,-0.472726 -16.32425,-0.158887 -32.64976,-0.07708 -48.974564,-0.102932 z"
       id="path8" />
    <path
       style="display:inline;opacity:1;fill:#e9c46a;fill-opacity:1;stroke-width:0.126349"
       d="m 135.72535,24.424828 c -3.67318,-0.0578 -7.26213,1.377516 -10.18319,3.53204 -2.40781,1.943074 -4.26178,4.460429 -6.35051,6.720796 -5.74447,6.627423 -11.57765,13.180974 -17.21004,19.903659 -0.23722,0.274263 -0.80438,0.918369 -0.16714,1.086193 3.34109,0.238322 6.70418,0.08763 10.05345,0.151722 14.17624,0.04228 28.35252,0.06745 42.5288,0.09458 0.47389,-0.476791 0.0585,-1.436909 0.18924,-2.09475 -0.0877,-4.963202 0.0401,-9.934742 -0.22114,-14.892463 -0.59499,-4.161897 -2.93356,-7.972796 -6.24523,-10.552331 -2.51657,-1.985158 -5.59755,-3.256381 -8.75436,-3.786186 -1.20638,-0.148689 -2.42556,-0.175388 -3.63988,-0.16326 z"
       id="path12" />
    <path
       style="opacity:1;fill:#e9c46a;fill-opacity:1;stroke-width:0.176777"
       d="m 154.08575,60.23148 c -10.9875,12.728884 -21.80601,25.603204 -32.94848,38.196772 -7.67226,8.432688 -16.47953,15.851178 -26.170516,21.866138 -0.968221,0.67659 -2.094165,1.19039 -2.976581,1.94842 0.747496,0.51714 2.070229,0.0489 3.029243,0.19261 6.344184,-0.15416 12.711484,0.0991 19.038944,-0.45445 10.15762,-1.49149 19.94936,-6.11041 27.1233,-13.52582 6.51881,-6.15549 10.79399,-14.513976 12.54294,-23.266737 1.11961,-5.713573 0.66732,-11.571603 0.75741,-17.355168 -0.0688,-2.537117 0.076,-5.125413 -0.12385,-7.631113 -0.0838,0.04646 -0.20877,-0.121835 -0.27241,0.02935 z"
       id="path9" />
  </g>
  <path
     style="display:none;fill:#000000;fill-opacity:1;stroke-width:0.155515"
     d="m 74.665784,109.55384 v -6.84265 H 61.781573 48.897362 l -2.316169,1.0302 c -10.709508,4.76347 -22.125077,8.05686 -33.577063,9.687 -6.253525,0.89016 -10.320304,1.18856 -18.350758,1.34649 l -5.287506,0.10399 0.405947,-0.44643 c 0.223271,-0.24553 5.715157,-6.63981 12.204191,-14.20949 10.225883,-11.928863 79.52105,-92.1908121 83.52815,-96.7474711 2.77026,-3.15020402 5.5528,-5.161204 9.01811,-6.517595 7.181396,-2.81094 15.014766,-1.921438 21.665996,2.46023698 1.5544,1.024006 4.43565,3.83031402 5.53048,5.38663302 0.4174,0.593341 1.15249,1.853011 1.63352,2.799268 l 0.87461,1.720467 8.51021,4.7615491 c 4.68062,2.61885 8.56934,4.823274 8.64162,4.898719 0.0743,0.07758 -3.30333,2.052193 -7.77549,4.545627 l -7.90689,4.408459 -0.0659,14.175571 c -0.0713,15.342384 -0.0716,15.34669 -0.98419,19.918962 -3.27366,16.400981 -15.26792,30.472441 -31.396396,36.833691 -4.10411,1.618713 -9.11864,2.917543 -12.7911,3.313063 l -0.97197,0.10468 v 4.72312 4.72312 h 5.6763 5.67629 v 2.33272 2.33273 h -8.08677 -8.08678 z M 7.258905,109.39742 c 21.862566,-2.24758 42.51967,-10.226823 59.786649,-23.093853 5.76859,-4.29865 11.27989,-9.2659 16.28296,-14.675585 1.61458,-1.745805 30.457346,-35.291488 30.737466,-35.749325 0.095,-0.155223 -4.98292,-0.192216 -25.200286,-0.183585 L 63.54647,35.70588 41.696627,61.210374 C 29.679214,75.237847 17.747334,89.153767 15.181338,92.134647 11.059745,96.922637 1.962634,107.53831 0.48976899,109.27865 l -0.539714,0.63773 2.11889301,-0.10162 c 1.165391,-0.0559 3.500871,-0.2437 5.189957,-0.41734 z M 80.455434,97.454897 c 9.23506,-1.43448 17.28488,-5.02236 24.069206,-10.72784 1.81369,-1.52527 5.01072,-4.78767 6.43398,-6.56553 4.31604,-5.39137 7.50322,-12.158675 8.86232,-18.817306 0.81183,-3.977379 0.88883,-5.440953 0.84227,-16.009699 l -0.0428,-9.711346 -8.48874,9.901227 -6.90367,8.052409 C 87.221904,74.579028 86.960674,74.876248 83.297534,78.528617 c -6.97473,6.95422 -15.25591,13.41784 -23.405684,18.26856 -0.898099,0.53454 -1.666687,1.00378 -1.707977,1.04274 -0.04129,0.039 4.472533,0.0429 10.030711,0.009 9.36184,-0.0575 10.26295,-0.0865 12.24083,-0.39376 z M 120.69819,23.185685 c 0,-6.187475 -0.0479,-8.106954 -0.22809,-9.1365 -1.15363,-6.5923111 -6.02795,-11.6239421 -13.01658,-13.43667012 -2.15643,-0.55934 -5.59421,-0.702545 -7.672076,-0.319589 -3.63326,0.669614 -6.76445,2.28714702 -9.2335,4.76990202 -0.90247,0.907479 -22.41378,25.7404541 -22.41378,25.8747991 0,0.04465 11.8269,0.08119 26.28201,0.08119 h 26.282016 z m 8.08467,-2.372121 c 1.62629,-0.908563 2.95689,-1.702811 2.95689,-1.764993 0,-0.08973 -5.42541,-3.197959 -5.93438,-3.399809 -0.0719,-0.02851 -0.1307,1.49359 -0.1307,3.382449 0,1.888857 0.034,3.434286 0.0756,3.434286 0.0416,0 1.40626,-0.74337 3.03254,-1.651933 z"
     id="path2"
     sodipodi:nodetypes="ccccssscssssssscssscscsscccccccccccsssscssscsccssssccsssscccscssssscssssssss" />
  <ellipse
     style="display:none;fill:#000000;fill-opacity:1"
     id="path7"
     cx="110.95998"
     cy="16.48036"
     rx="3.7918904"
     ry="6.4957843" />
</svg>
